HIERARCHY
ROOT root
{
	OFFSET	0	13.1	24.9
	CHANNELS 6  Xposition Yposition Zposition Xrotation Yrotation Zrotation
	JOINT spine_1
	{
		OFFSET	0	9.99999	0
		CHANNELS 3  Xrotation Yrotation Zrotation
		JOINT spine_2
		{
			OFFSET	0	112	-10
			CHANNELS 3  Xrotation Yrotation Zrotation
			JOINT spine_3
			{
				OFFSET	0	206.5	19.3
				CHANNELS 3  Xrotation Yrotation Zrotation
				JOINT spine_4
				{
					OFFSET	0	110.4	14.6
					CHANNELS 3  Xrotation Yrotation Zrotation
					JOINT neck_1
					{
						OFFSET	0	71.8	-50.3
						CHANNELS 3  Xrotation Yrotation Zrotation
						JOINT neck_2
						{
							OFFSET	0	86.2	-25.8
							CHANNELS 3  Xrotation Yrotation Zrotation
							JOINT head_ee
							{
								OFFSET	0	179.8	-8.7
								CHANNELS 3  Xrotation Yrotation Zrotation
								End Site
								{
									OFFSET	1	0	0
								}
							}
						}
					}
					JOINT left_clavicle
					{
						OFFSET	-43.2	22.4	-70.8
						CHANNELS 3  Xrotation Yrotation Zrotation
						JOINT left_shoulder
						{
							OFFSET	-93.9	-5.79999	48.7
							CHANNELS 3  Xrotation Yrotation Zrotation
							JOINT left_elbow
							{
								OFFSET	-291.4	-30.8	15.2
								CHANNELS 3  Xrotation Yrotation Zrotation
								JOINT left_lowarm_twist
								{
									OFFSET	-110.7	-3.89999	13.6
									CHANNELS 3  Xrotation Yrotation Zrotation
									JOINT left_hand
									{
										OFFSET	-110.7	-3.89999	13.6
										CHANNELS 3  Xrotation Yrotation Zrotation
										JOINT left_ee
										{
											OFFSET	-80.8	-5.10001	12.1
											CHANNELS 3  Xrotation Yrotation Zrotation
											End Site
											{
												OFFSET	1	0	0
											}
										}
									}
								}
							}
						}
					}
					JOINT right_clavicle
					{
						OFFSET	43.2	22.4	-70.8
						CHANNELS 3  Xrotation Yrotation Zrotation
						JOINT right_shoulder
						{
							OFFSET	93.9	-5.79999	48.7
							CHANNELS 3  Xrotation Yrotation Zrotation
							JOINT right_elbow
							{
								OFFSET	291.4	-30.8	15.2
								CHANNELS 3  Xrotation Yrotation Zrotation
								JOINT right_lowarm_twist
								{
									OFFSET	110.7	-3.89999	13.6
									CHANNELS 3  Xrotation Yrotation Zrotation
									JOINT right_hand
									{
										OFFSET	110.7	-3.89999	13.6
										CHANNELS 3  Xrotation Yrotation Zrotation
										JOINT right_ee
										{
											OFFSET	80.8	-5.10001	12.1
											CHANNELS 3  Xrotation Yrotation Zrotation
											End Site
											{
												OFFSET	1	0	0
											}
										}
									}
								}
							}
						}
					}
				}
			}
		}
	}
	JOINT left_hip
	{
		OFFSET	-82.8	-127.5	0.300001
		CHANNELS 3  Xrotation Yrotation Zrotation
		JOINT left_knee
		{
			OFFSET	-28.2	-396.7	2.2
			CHANNELS 3  Xrotation Yrotation Zrotation
			JOINT left_ankle
			{
				OFFSET	-11.7	-411.3	35.4
				CHANNELS 3  Xrotation Yrotation Zrotation
				JOINT left_toes
				{
					OFFSET	0	-60	-88.6
					CHANNELS 3  Xrotation Yrotation Zrotation
					JOINT left_foot_ee
					{
						OFFSET	-22.5	-16.5	-42.2
						CHANNELS 3  Xrotation Yrotation Zrotation
						End Site
						{
							OFFSET	1	0	0
						}
					}
				}
			}
		}
	}
	JOINT right_hip
	{
		OFFSET	82.8	-127.5	0.300001
		CHANNELS 3  Xrotation Yrotation Zrotation
		JOINT right_knee
		{
			OFFSET	28.2	-396.7	2.2
			CHANNELS 3  Xrotation Yrotation Zrotation
			JOINT right_ankle
			{
				OFFSET	11.7	-411.3	35.4
				CHANNELS 3  Xrotation Yrotation Zrotation
				JOINT right_toes
				{
					OFFSET	0	-60	-88.6
					CHANNELS 3  Xrotation Yrotation Zrotation
					JOINT right_foot_ee
					{
						OFFSET	22.5	-16.5	-42.2
						CHANNELS 3  Xrotation Yrotation Zrotation
						End Site
						{
							OFFSET	1	0	0
						}
					}
				}
			}
		}
	}
}
MOTION
Frames: 5
Frame Time: 0.02
3664.17 611.028 -293.547 -23.8347 39.5007 14.8205 4.96735 0.604589 2.76182 4.9715 0.427692 2.79466 4.98879 0.0770608 2.82612 4.97802 0.522253 2.77855 -4.15667 -0.502605 -6.8477 -4.00813 4.31681 -7.12921 -0.0 0.0 -0.0 -0.993812 14.0044 0.0330292 17.7015 -3.77474 70.8436 2.08085 -45.8631 0.880414 78.0014 -3.61011 -8.49312 -6.4697 17.9419 -34.1976 -0.0 0.0 -0.0 9.26177 18.3688 -17.8703 -25.6458 39.3138 -79.6521 0.289091 8.14993 -0.0205954 -53.202 4.45148 -4.8398 -7.04354 -28.8738 28.0318 0.0 0.0 0.0 6.01589 7.21844 11.5193 -11.6941 0.302142 1.7661 42.4442 20.2191 -5.2537 12.466 -0.0 -0.0 -0.0 0.0 -0.0 59.4011 21.1989 -13.3307 -16.8851 -0.319718 -2.5621 -19.2146 -11.0615 -2.89019 -22.8614 0.0 0.0 0.0 0.0 0.0 
3644.4 611.971 -307.569 -24.1823 39.9723 14.9048 5.01135 0.526525 2.8484 5.01579 0.344284 2.8761 5.0292 -0.0138864 2.89658 5.01777 0.443559 2.86248 -3.54786 -0.512648 -7.85645 -3.34817 5.14198 -8.22093 -0.0 0.0 -0.0 -0.927838 13.6412 0.090039 15.8707 -4.20068 70.4482 1.96328 -44.198 0.797232 77.643 -3.56958 -8.47136 -6.44451 17.6712 -34.2438 -0.0 0.0 -0.0 9.31372 19.9583 -17.8751 -25.1379 38.6599 -79.5735 0.300386 8.46383 -0.0222272 -52.1063 4.32058 -4.7885 -7.00565 -28.6329 28.0259 0.0 0.0 0.0 5.58294 7.27765 11.8598 -12.6719 0.310966 1.91588 41.8835 21.2245 -5.23036 13.8343 -0.0 -0.0 -0.0 0.0 -0.0 59.0668 21.3888 -13.8031 -16.2545 -0.321432 -2.46535 -19.7673 -10.7403 -2.97333 -22.4842 0.0 0.0 0.0 0.0 0.0 
3630.67 615.916 -321.543 -24.5083 39.3196 14.713 5.10713 0.473112 2.87609 5.11169 0.289219 2.90034 5.12225 -0.0668614 2.91394 5.11062 0.393985 2.88798 -2.71715 -0.188159 -9.25214 -2.42502 6.92228 -9.71375 -0.0 0.0 -0.0 -0.0021533 13.4362 1.58108 14.8858 -4.17043 69.1397 1.86647 -42.7519 0.730612 76.988 -3.49586 -8.43094 -6.63249 17.6082 -35.7439 -0.0 0.0 -0.0 9.79677 23.3724 -18.6702 -23.9884 37.8237 -80.9742 0.313455 8.8264 -0.0241917 -50.9793 4.18698 -4.73314 -7.24628 -29.2591 28.9398 0.0 0.0 0.0 5.59459 7.36097 11.9027 -13.2609 0.315047 2.00616 41.0021 23.794 -5.22429 14.641 -0.0 -0.0 -0.0 0.0 -0.0 57.8726 21.7654 -14.0371 -16.0547 -0.321753 -2.4347 -17.6965 -9.20178 -2.65773 -21.7117 0.0 0.0 0.0 0.0 0.0 
3608.29 624.548 -329.078 -24.0491 39.7664 15.1577 4.97489 0.444898 2.66254 4.97879 0.274635 2.68544 4.98832 -0.0614278 2.69873 4.97834 0.365403 2.67461 -3.45491 -0.234676 -10.7256 -3.07102 7.89173 -11.1896 -0.0 0.0 -0.0 0.360072 14.5693 2.29583 11.6973 -8.42279 67.993 1.91506 -43.4864 0.763826 78.3847 -3.65361 -8.51611 -6.89672 17.5024 -37.9294 -0.0 0.0 -0.0 10.5942 25.4802 -20.2521 -23.9028 36.6796 -81.5641 0.235872 6.66462 -0.0137338 -50.0326 4.07561 -4.68461 -7.53637 -29.3348 30.7352 0.0 0.0 0.0 6.26865 7.47953 11.4942 -16.0237 0.321793 2.42994 39.7189 25.3821 -5.15334 15.6964 -0.0 -0.0 -0.0 0.0 -0.0 56.5272 22.4903 -13.9169 -20.5364 -0.288876 -3.12139 -10.4663 -7.77919 -1.56151 -20.1955 0.0 0.0 0.0 0.0 0.0 
3592.98 624.538 -345.969 -22.1286 41.5348 14.0806 4.37564 0.48703 2.71388 4.37968 0.313418 2.73935 4.39189 -0.0583284 2.75659 4.38148 0.37759 2.73125 -4.63918 0.110952 -11.5406 -4.20378 8.96625 -11.8477 -0.0 0.0 -0.0 0.0148085 17.7261 2.09868 8.4973 -14.4848 68.6413 2.2561 -48.1722 1.00865 78.1011 -3.6214 -8.49912 -7.25226 17.4547 -40.9063 -0.0 0.0 -0.0 11.1125 27.3321 -21.2134 -23.6236 35.67 -80.434 0.196102 5.54863 -0.00950294 -48.9074 3.9443 -4.62454 -7.6547 -28.8524 32.031 0.0 0.0 0.0 7.09457 7.60317 11.0265 -22.4971 0.257626 3.4206 38.536 26.207 -5.06433 16.4701 -0.0 -0.0 -0.0 0.0 -0.0 55.1526 23.3021 -13.7349 -23.6199 -0.235124 -3.59144 -4.02324 -6.64796 -0.594252 -18.8236 0.0 0.0 0.0 0.0 0.0 
